PathFileType	4	(X/Y/Z)	C:/Users/beibeiliu/ov580/test_trc/User3\sequence.33_training_dense_right.trc
DataRate	CameraRate	NumFrames	NumMarkers	Units	OrigDataRate	OrigDataStartFrame	OrigNumFrames
120	120	24	19	mm	120	137	219
Frame#	Time	ThumbCMC			ThumbMCP			ThumbIP			ThumbTip			IndexMCP			IndexPIP			IndexTip			MiddleMCP			MiddlePIP			MiddleTip			RingMCP			RingPIP			RingTip			PinkyMCP			PinkyPIP			PinkyTip			BackHand1			BackHand2			BackHand3	
		X0	Y0	Z0	X1	Y1	Z1	X2	Y2	Z2	X3	Y3	Z3	X4	Y4	Z4	X5	Y5	Z5	X6	Y6	Z6	X7	Y7	Z7	X8	Y8	Z8	X9	Y9	Z9	X10	Y10	Z10	X11	Y11	Z11	X12	Y12	Z12	X13	Y13	Z13	X14	Y14	Z14	X15	Y15	Z15	X16	Y16	Z16	X17	Y17	Z17	X18	Y18	Z18	
136	1.13333	147.322	-17.2759	17.1434	138.49	8.03275	-6.9738	118.154	21.1044	-30.8153	97.7657	29.0185	-43.1586	115.869	-27.8931	-52.6376	99.0027	-11.014	-74.2852	82.3006	14.2746	-80.341	95.3232	-36.9823	-52.1595	80.1423	-16.5148	-71.1093	63.9664	12.5703	-74.4527	74.9782	-30.4165	-31.5557	64.4952	-0.950452	-28.2246	70.9596	14.8052	-3.15514	65.6572	-36.3745	-10.2241	61.4106	-6.22245	-3.32358	78.7992	2.22487	16.5342	107.414	-64.5133	2.78461	116.855	-70.9905	35.3877	138.613	-54.983	8.65775	
137	1.14167	147.884	-17.7942	17.2533	136.529	6.77032	-8.47587	121.124	21.2433	-25.9943	102.094	30.432	-40.7757	115.939	-26.5261	-56.4929	105.676	-8.84101	-74.4653	89.9405	14.057	-82.7218	94.4274	-34.2231	-54.2106	81.1081	-16.631	-70.1163	60.0728	12.5829	-74.3481	73.6345	-29.9382	-31.7618	62.8621	-1.73354	-25.8147	71.8069	16.0497	-5.05777	67.0776	-35.1198	-10.8649	61.6491	-8.12393	-4.40869	83.6824	3.4594	16.4934	108.07	-66.1596	4.11674	117.577	-68.9105	34.4404	142.476	-54.336	8.65101	
138	1.15	146.713	-16.655	14.6973	135.289	5.73289	-6.6808	123.067	23.941	-27.0046	102.587	31.0139	-42.7263	117.776	-26.6759	-54.0294	103.798	-10.4272	-72.5839	91.6322	12.2662	-81.4785	94.5192	-36.3452	-50.0959	81.1704	-15.1929	-67.5757	62.3997	15.8019	-73.735	76.6279	-28.4324	-32.2902	66.8962	-0.75476	-27.0981	74.0399	17.5312	1.68334	70.3653	-35.6064	-10.9102	62.3229	-7.34477	-4.6123	85.0183	3.68707	16.3437	107.672	-68.1814	8.51004	118.713	-68.4169	32.578	143.571	-53.38	10.5718	
139	1.15833	150.06	-14.1107	16.0888	137.308	7.98951	-6.32266	121.287	21.0445	-25.4965	103.551	27.4716	-40.6933	120.628	-24.5261	-53.8773	107.572	-7.35467	-71.7253	88.7761	17.189	-80.3425	94.2101	-35.8918	-48.8214	79.6215	-9.11948	-68.1517	65.3023	21.7568	-71.4225	77.9047	-28.4841	-29.7383	66.3871	-1.94578	-25.691	76.4478	17.6587	-1.53163	67.9793	-30.5876	-14.4168	66.4516	-4.65825	-4.15227	82.713	0.782781	17.6099	107.993	-64.8987	2.98506	119.22	-69.6284	37.4128	140.004	-53.7328	8.10414	
140	1.16667	148.651	-15.0394	17.1151	134.793	7.26216	-8.38861	119.077	20.4396	-28.2393	103.263	30.1404	-43.2656	118.287	-24.2181	-52.9653	105.95	-6.41541	-70.4457	88.9182	19.2907	-77.1664	97.1743	-30.0616	-52.8015	81.0016	-7.29081	-66.2768	68.7082	22.9737	-65.7772	81.0201	-27.4171	-32.3644	70.1329	-1.32032	-28.2352	79.9919	17.3006	-1.8325	69.413	-31.7304	-14.2051	67.9329	-4.82364	-5.65374	88.7262	-0.187777	13.9766	108.888	-64.1308	3.37741	119.015	-66.9951	31.3341	145.579	-53.2023	9.91242	
141	1.175	148.92	-12.9441	15.2778	133.928	6.40265	-6.74016	118.143	19.7771	-32.7629	99.4009	22.7633	-44.263	121.655	-19.556	-55.5446	106.887	2.16206	-70.7499	95.3259	24.4281	-72.9619	97.2623	-28.857	-54.0351	88.078	-5.3217	-65.7443	72.9027	30.3343	-59.535	79.665	-28.0243	-31.7853	71.425	2.32881	-25.1162	83.9012	15.3083	4.14249	68.8279	-33.1883	-15.0113	71.0483	-1.89037	-6.559	87.4083	1.0307	14.8326	109.681	-63.4591	6.15168	118.576	-67.9518	35.3799	141.421	-51.463	9.18901	
142	1.18333	148.544	-11.5522	13.0787	133.887	6.90978	-7.85354	117.206	18.7109	-31.4813	97.2469	20.7379	-43.0131	121.386	-18.863	-55.8337	104.985	3.54711	-67.6056	92.2787	31.5455	-63.6166	101.875	-26.5105	-52.208	85.0549	-0.050063	-63.3199	73.1169	29.9131	-50.8202	83.9761	-23.9637	-35.1695	73.6044	4.08635	-24.1716	86.8095	14.0034	-0.501019	69.01	-31.5719	-16.758	72.6252	-2.43164	-9.74912	90.2285	-3.1119	17.9535	110.658	-62.5607	2.94659	116.523	-68.1447	35.0008	140.919	-52.0625	8.09688	
143	1.19167	148.222	-12.1943	16.0013	133.106	6.25964	-5.97517	115.509	16.206	-31.5036	93.2626	15.428	-41.0233	121.103	-16.8219	-54.0731	105.385	8.53726	-65.5848	95.7505	34.8941	-55.1597	99.0955	-27.1147	-50.8445	85.4071	0.490812	-61.2372	77.7192	33.5589	-47.633	82.5444	-22.4335	-35.6751	73.1249	2.91829	-24.6064	92.2601	9.97978	6.45958	69.5019	-26.4577	-20.0546	72.8655	-2.1204	-9.2115	87.353	-5.84381	16.8493	112.294	-62.9388	3.86588	114.83	-66.7329	33.6647	139.34	-50.2092	8.89603	
144	1.2	146.372	-11.9612	15.9114	134.709	8.34556	-8.76671	113.894	15.2408	-31.3949	87.5469	11.9604	-42.4463	120.888	-16.6354	-54.377	109.391	10.3545	-63.1505	100.677	34.6947	-50.9413	98.6834	-24.7515	-52.2259	85.4968	5.51902	-59.8124	80.5377	35.2677	-45.462	84.6426	-25.6929	-32.7099	77.3724	6.63334	-22.726	90.2202	7.49861	5.93269	73.4485	-26.7848	-19.7579	70.8183	-3.36506	-8.27109	92.355	-9.77993	16.5331	111.182	-61.7277	3.44652	115.535	-66.0995	33.4919	141.75	-49.2216	11.8412	
145	1.20833	148.905	-10.1378	19.0142	133.369	7.91364	-8.38211	112.702	15.6272	-30.2877	86.1454	9.59286	-39.937	122.526	-18.3347	-50.4633	107.735	11.8702	-61.1558	101.019	37.6093	-42.8731	97.7691	-23.7661	-51.0216	84.9764	5.08775	-57.9208	80.3479	34.967	-46.027	85.2581	-22.2171	-35.654	76.0576	4.24852	-23.4431	91.6198	6.63316	3.67624	69.0822	-31.3169	-17.1408	71.6711	-2.59428	-6.36376	90.6822	-11.3864	16.7566	107.409	-61.3185	3.96526	114.053	-66.4231	34.8278	141.597	-48.782	10.0326	
146	1.21667	144.437	-12.4964	19.2751	131.591	7.18678	-5.98845	108.976	13.9633	-34.8004	86.2386	7.96985	-37.1248	121.109	-17.9477	-51.0069	110.18	14.7759	-59.4373	101.448	34.5122	-43.8176	101.692	-23.4405	-52.0787	86.6089	4.89192	-58.0088	79.6398	37.208	-43.5702	85.3346	-25.9671	-33.6834	75.3936	2.73965	-25.5959	95.5176	4.54503	7.17308	70.5967	-29.4204	-17.1614	73.9927	-2.57563	-8.95441	92.2336	-9.31836	14.4928	108.639	-60.6533	3.9218	115.234	-65.3741	36.8182	140.558	-51.9816	11.0333	
147	1.225	146.015	-10.6414	19.8902	130.918	9.07099	-9.81295	109.771	12.9586	-29.289	82.9989	7.86578	-40.9839	124.866	-16.3453	-52.8865	110.294	13.0142	-59.0576	102.284	36.2608	-38.8996	100.078	-25.319	-49.6718	88.3442	5.56678	-58.8032	79.8392	38.2328	-44.0805	83.6679	-23.716	-33.8111	79.5012	3.49496	-24.2317	93.7349	3.03232	7.41614	69.9622	-30.5789	-17.9304	72.5191	-4.50351	-9.71856	91.0265	-10.8199	15.405	107.844	-62.2056	7.2544	117.186	-63.2703	32.9437	144.054	-47.8556	10.1466	
148	1.23333	147.767	-11.2784	16.3104	132.533	8.43443	-8.42428	110.218	12.0399	-31.6083	82.2884	6.46669	-42.2192	122.868	-17.7034	-53.2868	108.523	11.0289	-58.6537	100.375	32.783	-39.8058	104.446	-24.6147	-51.8161	91.5593	3.41239	-59.6969	78.7741	34.6474	-46.2001	84.0375	-24.8181	-32.3308	81.2325	3.80628	-22.1495	97.9212	3.40575	4.79848	73.302	-29.7553	-18.1784	74.7969	-4.18365	-9.98411	91.7833	-11.7227	15.459	109.007	-62.0934	7.42305	119.508	-63.665	32.5295	143.447	-50.2005	12.205	
149	1.24167	146.481	-13.2464	17.6584	131.359	6.56604	-12.7964	111.818	14.1015	-34.1077	85.9614	8.25729	-43.3477	125.317	-21.5805	-50.0014	108.411	9.84552	-58.9326	104.508	30.9763	-42.6147	104.943	-24.425	-52.6333	90.0918	2.89289	-60.6807	82.8671	32.0714	-51.0583	89.066	-25.3873	-33.4425	81.3542	2.27895	-21.9801	100.45	-1.39718	9.41749	74.9582	-27.9274	-18.6868	78.65	-3.69516	-5.31787	94.062	-15.2862	15.6107	108.382	-64.0538	6.90258	115.063	-64.3378	35.3052	145.928	-50.6542	11.6364	
150	1.25	147.402	-13.5389	20.1358	133.367	7.48306	-9.29445	110.456	9.17291	-36.1201	84.5429	2.98094	-44.0714	124.339	-20.5967	-52.7202	114.584	7.60612	-61.4359	101.752	30.5851	-41.3292	103.076	-28.9089	-50.0406	90.5844	-3.36591	-59.7303	81.2598	34.4418	-49.8556	91.2773	-28.7261	-33.0206	82.1119	0.905717	-22.8544	100.076	-0.988553	6.60244	72.7479	-30.7184	-17.8731	77.8783	-5.92701	-6.62462	95.9533	-14.8549	17.5542	111.088	-63.5533	3.39248	117.497	-63.3141	36.2487	146.084	-52.1201	11.9258	
151	1.25833	150.732	-11.0876	18.4916	133.354	3.95338	-7.62365	113.743	11.7292	-35.6418	88.8245	4.30524	-42.0222	124.901	-21.0014	-53.9714	112.362	7.30043	-61.0373	102.238	29.1154	-43.3805	102.392	-28.3561	-52.3991	90.5424	-2.82912	-62.2182	81.5052	30.2852	-52.8052	88.6478	-30.3151	-32.4995	82.6003	-0.518653	-23.8401	102.025	-2.23669	7.55084	76.6575	-33.29	-17.8761	78.5024	-6.2438	-5.99029	99.2039	-19.5177	16.538	110.047	-66.8322	7.42328	116.774	-65.5166	37.1382	142.924	-52.5422	16.114	
152	1.26667	149.606	-11.9963	18.3811	131.311	2.06799	-11.9658	111.913	7.30167	-37.4294	87.8973	-0.274594	-43.8242	128.807	-22.3052	-52.1921	116.351	5.37868	-62.2571	102.949	30.6778	-44.6497	105.158	-31.5904	-52.2282	93.8041	-3.51086	-64.0032	80.3406	29.8701	-53.145	90.7267	-29.1361	-35.6501	83.6554	-0.638746	-22.9193	98.1017	-3.23328	5.33978	73.8132	-33.4294	-18.5963	79.9851	-8.84977	-9.72279	98.483	-19.4933	13.0773	112.154	-65.8842	3.77941	122.337	-65.8331	35.9323	144.728	-52.7746	12.7585	
153	1.275	148.395	-13.4634	18.3467	133.694	3.45248	-13.4996	113.952	5.17468	-34.1724	89.3665	-3.77104	-43.3751	125.863	-23.6671	-54.066	116.94	0.991851	-64.1996	101.594	24.9861	-48.5233	110.94	-34.7825	-51.5044	93.1338	-6.71163	-64.1393	83.6609	27.4379	-54.4384	88.3081	-30.6708	-36.6784	82.2628	-4.48547	-25.7781	103.321	-4.76358	4.19609	79.7312	-35.9943	-20.1662	77.8255	-11.8386	-8.74955	99.3294	-21.9285	13.6125	113.253	-67.4746	7.52615	121.605	-67.4823	34.2869	147.107	-53.6691	11.6689	
154	1.28333	149.315	-13.6933	18.3792	136.081	4.83215	-13.8541	116.224	8.18317	-37.4241	93.3744	-2.43822	-42.7555	132.382	-27.0631	-51.7563	113.785	-1.92842	-64.2258	100.574	25.0398	-50.9083	108.285	-36.2522	-52.71	96.0055	-8.11214	-65.1259	84.175	22.9477	-53.7838	94.6626	-32.206	-38.1824	82.2386	-8.46284	-26.3928	100.801	-6.8636	3.40232	78.1927	-37.5893	-21.9791	79.8923	-13.5218	-13.8971	100.325	-24.1762	11.8645	118.191	-67.6175	4.62908	122.953	-67.0588	33.3541	149.603	-50.6907	14.4365	
155	1.29167	151.086	-15.4869	14.9193	138.124	0.631733	-9.55389	118.446	2.89261	-37.8613	93.8991	-5.37202	-46.9191	133.137	-25.3146	-54.7208	118.875	-2.77224	-66.9443	103.124	22.5326	-56.2627	111.446	-37.7225	-54.4818	98.9146	-12.6456	-64.7099	83.801	21.443	-47.5918	96.3231	-36.0408	-38.4147	83.5071	-8.01949	-26.5908	101.443	-7.47994	1.11784	81.9783	-43.8407	-21.3316	78.986	-16.2631	-13.4168	100.042	-22.9623	11.473	121.22	-69.6765	4.34825	127.551	-69.4852	32.7798	149.403	-55.5701	11.2875	
156	1.3	153.705	-15.7214	17.0731	141.927	-3.30602	-12.0212	123.295	0.387284	-40.394	94.6604	-13.724	-45.7369	130.766	-31.2588	-52.7208	115.452	-5.55371	-67.0326	102.217	20.2744	-55.8441	111.468	-42.2929	-53.1267	95.8378	-12.5233	-64.3827	84.5669	15.894	-42.3763	93.0794	-41.7173	-37.9873	85.9387	-11.8052	-33.1432	99.3277	-9.15598	-1.44321	84.2278	-43.501	-25.5977	81.6534	-18.2997	-17.4932	98.5427	-24.1554	11.823	120.561	-70.5764	5.10916	128.584	-68.7942	34.8107	149.672	-55.2372	14.7528	
157	1.30833	156.351	-17.0851	12.5763	142.495	-6.96745	-16.0178	125.181	-3.3408	-41.9805	101.081	-13.7889	-44.8095	135.219	-29.5202	-56.2872	116.867	-4.63732	-67.7243	104.607	18.6178	-56.9342	110.854	-41.4677	-57.1547	97.9923	-13.5585	-65.1925	85.878	11.1689	-41.0952	93.1881	-43.2411	-40.2512	85.3344	-15.1548	-35.1142	96.2725	-10.4995	-4.97182	82.8741	-49.2431	-25.4871	80.4411	-20.99	-20.1105	97.5328	-23.0069	3.57348	120.146	-73.7216	5.20366	127.397	-72.0173	34.0614	154.535	-54.0858	10.1321	
158	1.31667	154.88	-18.7519	15.5765	146.551	-5.1404	-16.0661	127.78	-7.3773	-40.9073	103.933	-16.5475	-47.0221	134.117	-33.8951	-55.3142	117.463	-9.07757	-68.8702	102.374	16.4323	-56.3746	115.845	-45.2185	-54.3361	96.6553	-13.822	-65.6949	85.6201	12.0489	-40.1292	96.0777	-49.6101	-39.9939	84.769	-18.4446	-40.3701	96.0076	-9.11055	-6.50169	82.6261	-53.4861	-25.5275	78.183	-23.4728	-19.9747	93.3355	-23.9546	3.38674	122.239	-73.6269	1.23524	127.979	-74.2044	33.114	155.203	-56.2627	11.2431	
159	1.325	155.349	-19.7786	12.9095	147.619	-5.21704	-15.0812	132.615	-3.34301	-41.2822	107.09	-12.9402	-52.2554	136.844	-32.0552	-57.5071	121.377	-13.1306	-70.2249	102.415	14.4765	-57.1639	113.276	-46.7134	-57.0078	96.6286	-21.3091	-66.8578	86.4782	9.74136	-48.2598	96.0271	-50.3676	-42.7242	85.9011	-22.2055	-45.0363	93.3586	-8.41159	-14.7039	86.1972	-56.3097	-27.2429	78.8451	-29.1426	-27.7062	94.7976	-19.4767	-1.94565	123.14	-77.1018	2.42229	128.987	-75.6079	35.5419	152.982	-58.6466	13.287	
